<?xml version="1.0" encoding="UTF-8" standalone="no"?>
<!-- Created with Inkscape (http://www.inkscape.org/) -->

<svg
   width="117.93214mm"
   height="31.867167mm"
   viewBox="0 0 117.93214 31.867167"
   version="1.1"
   id="svg947"
   sodipodi:docname="starzmag2.svg"
   inkscape:version="1.1 (c68e22c387, 2021-05-23)"
   xmlns:inkscape="http://www.inkscape.org/namespaces/inkscape"
   xmlns:sodipodi="http://sodipodi.sourceforge.net/DTD/sodipodi-0.dtd"
   xmlns="http://www.w3.org/2000/svg"
   xmlns:svg="http://www.w3.org/2000/svg"
   xmlns:rdf="http://www.w3.org/1999/02/22-rdf-syntax-ns#"
   xmlns:cc="http://creativecommons.org/ns#"
   xmlns:dc="http://purl.org/dc/elements/1.1/">
  <defs
     id="defs941" />
  <sodipodi:namedview
     id="base"
     pagecolor="#ffffff"
     bordercolor="#666666"
     borderopacity="1.0"
     inkscape:pageopacity="0.0"
     inkscape:pageshadow="2"
     inkscape:zoom="1.4"
     inkscape:cx="216.07143"
     inkscape:cy="53.214286"
     inkscape:document-units="mm"
     inkscape:current-layer="layer1"
     showgrid="false"
     inkscape:window-width="1366"
     inkscape:window-height="705"
     inkscape:window-x="-8"
     inkscape:window-y="-8"
     inkscape:window-maximized="1"
     fit-margin-top="0"
     fit-margin-left="2"
     fit-margin-right="0"
     fit-margin-bottom="0"
     inkscape:pagecheckerboard="1" />
  <metadata
     id="metadata944">
    <rdf:RDF>
      <cc:Work
         rdf:about="">
        <dc:format>image/svg+xml</dc:format>
        <dc:type
           rdf:resource="http://purl.org/dc/dcmitype/StillImage" />
        <dc:title />
      </cc:Work>
    </rdf:RDF>
  </metadata>
  <g
     inkscape:label="Calque 1"
     inkscape:groupmode="layer"
     id="layer1"
     transform="translate(15.789744,-11.733233)">
    <g
       aria-label="STARZ MAG
LE MAGAZINE DES ARTISTES DU WEB"
       id="text1512"
       style="font-size:10.5833px;line-height:0px;letter-spacing:0px;word-spacing:0px;fill:#00ffff;stroke-width:0.264583">
      <path
         d="m -8.1823765,37.133231 q -2.8222245,0 -4.2686135,-1.587501 -1.44639,-1.622779 -1.44639,-4.621392 v -1.411112 h 3.668891 v 1.693334 q 0,2.398891 2.0108347,2.398891 0.9877785,0 1.4816677,-0.564445 0.529167,-0.599723 0.529167,-1.905002 0,-1.552223 -0.705556,-2.71639 -0.7055561,-1.199445 -2.6105573,-2.857502 -2.3988901,-2.116668 -3.3513911,-3.810003 -0.952501,-1.728612 -0.952501,-3.880558 0,-2.928057 1.481668,-4.515558 1.481668,-1.622779 4.3038917,-1.622779 2.7869463,0 4.1980584,1.622779 1.4463899,1.587501 1.4463899,4.586114 v 1.023056 h -3.6688914 v -1.270001 q 0,-1.270001 -0.4938892,-1.834446 -0.4938892,-0.599722 -1.4463899,-0.599722 -1.9402791,0 -1.9402791,2.363613 0,1.340556 0.7055561,2.504723 0.7408338,1.164168 2.6458351,2.822225 2.4341683,2.116668 3.3513911,3.84528 0.9172229,1.728612 0.9172229,4.056947 0,3.033891 -1.5169455,4.65667 -1.4816677,1.622779 -4.3391696,1.622779 z"
         style="font-size:35.2778px;font-family:'Bebas Neue';-inkscape-font-specification:'Bebas Neue';text-align:center;text-anchor:middle;stroke:none;fill:#ffffff;fill-opacity:1"
         id="path12065" />
      <path
         d="m 2.9301218,15.613772 h -4.0569472 v -3.52778 H 10.867627 v 3.52778 H 6.81068 V 36.780453 H 2.9301218 Z"
         style="font-size:35.2778px;font-family:'Bebas Neue';-inkscape-font-specification:'Bebas Neue';text-align:center;text-anchor:middle;stroke:none;fill:#ffffff;fill-opacity:1"
         id="path12067" />
      <path
         d="m 14.113079,12.085992 h 5.256392 l 4.02167,24.694461 h -3.880558 l -0.705556,-4.903615 v 0.07056 h -4.409726 l -0.705556,4.833059 H 10.09141 Z m 4.233336,16.510011 -1.728612,-12.20612 h -0.07056 l -1.693334,12.20612 z"
         style="font-size:35.2778px;font-family:'Bebas Neue';-inkscape-font-specification:'Bebas Neue';text-align:center;text-anchor:middle;stroke:none;fill:#ffffff;fill-opacity:1"
         id="path12069" />
      <path
         d="m 25.260828,12.085992 h 5.750282 q 2.998613,0 4.374447,1.411112 1.375834,1.375834 1.375834,4.268614 v 1.516945 q 0,3.845281 -2.540001,4.868337 v 0.07055 q 1.411112,0.423334 1.975557,1.728613 0.599722,1.305278 0.599722,3.492502 v 4.33917 q 0,1.058334 0.07056,1.728612 0.07056,0.635 0.352778,1.270001 h -3.951114 q -0.211667,-0.599723 -0.282222,-1.12889 -0.07056,-0.529167 -0.07056,-1.905001 v -4.515559 q 0,-1.693334 -0.564445,-2.363612 -0.529167,-0.670279 -1.869723,-0.670279 h -1.340557 v 10.583341 h -3.880558 z m 5.29167,10.58334 q 1.164168,0 1.728613,-0.599723 0.599722,-0.599722 0.599722,-2.010834 v -1.905001 q 0,-1.340557 -0.493889,-1.94028 -0.458611,-0.599722 -1.481668,-0.599722 h -1.76389 v 7.05556 z"
         style="font-size:35.2778px;font-family:'Bebas Neue';-inkscape-font-specification:'Bebas Neue';text-align:center;text-anchor:middle;stroke:none;fill:#ffffff;fill-opacity:1"
         id="path12071" />
      <path
         d="m 38.701666,33.323228 7.196672,-17.709456 h -6.843894 v -3.52778 h 11.006674 v 3.457224 l -7.196671,17.709457 h 7.196671 v 3.52778 H 38.701666 Z"
         style="font-size:35.2778px;font-family:'Bebas Neue';-inkscape-font-specification:'Bebas Neue';text-align:center;text-anchor:middle;stroke:none;fill:#ffffff;fill-opacity:1"
         id="path12073" />
      <path
         d="m 57.892771,12.085992 h 5.538615 l 2.469446,17.674178 h 0.07055 l 2.469447,-17.674178 h 5.538614 V 36.780453 H 70.310557 V 18.083218 h -0.07056 L 67.417777,36.780453 H 64.17222 L 61.349995,18.083218 h -0.07055 v 18.697235 h -3.386669 z"
         style="font-size:35.2778px;font-family:'Bebas Neue';-inkscape-font-specification:'Bebas Neue';text-align:center;text-anchor:middle;stroke:none;fill:#ffffff;fill-opacity:1"
         id="path12075" />
      <path
         d="m 79.870777,12.085992 h 5.256393 l 4.021669,24.694461 h -3.880558 l -0.705556,-4.903615 v 0.07056 h -4.409726 l -0.705556,4.833059 h -3.598335 z m 4.233336,16.510011 -1.728612,-12.20612 h -0.07056 l -1.693334,12.20612 z"
         style="font-size:35.2778px;font-family:'Bebas Neue';-inkscape-font-specification:'Bebas Neue';text-align:center;text-anchor:middle;stroke:none;fill:#ffffff;fill-opacity:1"
         id="path12077" />
      <path
         d="m 96.451284,37.133231 q -2.822224,0 -4.303892,-1.587501 -1.481668,-1.622779 -1.481668,-4.621392 V 17.942107 q 0,-2.998613 1.481668,-4.586114 1.481668,-1.622779 4.303892,-1.622779 2.822224,0 4.303896,1.622779 1.48166,1.587501 1.48166,4.586114 v 2.116668 h -3.668888 v -2.363613 q 0,-2.434168 -2.010835,-2.434168 -2.010835,0 -2.010835,2.434168 V 31.20656 q 0,2.398891 2.010835,2.398891 2.010835,0 2.010835,-2.398891 v -4.833059 h -1.940279 v -3.52778 h 5.609167 v 8.078617 q 0,2.998613 -1.48166,4.621392 -1.481672,1.587501 -4.303896,1.587501 z"
         style="font-size:35.2778px;font-family:'Bebas Neue';-inkscape-font-specification:'Bebas Neue';text-align:center;text-anchor:middle;stroke:none;fill:#ffffff;fill-opacity:1"
         id="path12079" />
      <path
         d="m -10.217388,43.509621 h -2.758487 v -4.360284 h 0.579809 v 3.844898 h 2.178678 z"
         style="font-size:5.99722px;text-align:center;text-anchor:middle;stroke:none;fill:#ffffff;fill-opacity:1"
         id="path12081" />
      <path
         d="m -6.7648867,43.509621 h -2.8726918 v -4.360284 h 2.8726918 v 0.515386 h -2.2928824 v 1.194759 h 2.2928824 v 0.515386 h -2.2928824 v 1.619367 h 2.2928824 z"
         style="font-size:5.99722px;text-align:center;text-anchor:middle;stroke:none;fill:#ffffff;fill-opacity:1"
         id="path12083" />
      <path
         d="m 0.14597239,43.509621 h -0.57980936 v -3.757048 l -1.21232863,2.556432 h -0.345543 l -1.2035437,-2.556432 v 3.757048 h -0.541741 v -4.360284 h 0.7906491 l 1.1625471,2.427586 1.12447871,-2.427586 h 0.80529078 z"
         style="font-size:5.99722px;text-align:center;text-anchor:middle;stroke:none;fill:#ffffff;fill-opacity:1"
         id="path12085" />
      <path
         d="M 4.7551641,43.509621 H 4.1372865 L 3.7097503,42.294364 H 1.8239057 L 1.3963695,43.509621 H 0.80777517 L 2.3949301,39.149337 H 3.1680092 Z M 3.5311222,41.796548 2.766828,39.655938 1.9996055,41.796548 Z"
         style="font-size:5.99722px;text-align:center;text-anchor:middle;stroke:none;fill:#ffffff;fill-opacity:1"
         id="path12087" />
      <path
         d="m 9.0539524,43.187504 q -0.3572563,0.163987 -0.7818641,0.286977 -0.4216796,0.120061 -0.8170041,0.120061 -0.5095295,0 -0.9341373,-0.14056 Q 6.096339,43.313423 5.7976493,43.032303 5.4960313,42.748255 5.3320449,42.323647 5.1680584,41.896111 5.1680584,41.325086 q 0,-1.045413 0.6090926,-1.648649 0.612021,-0.606165 1.6779332,-0.606165 0.3718979,0 0.7584375,0.09078 0.3894679,0.08785 0.8375024,0.301618 v 0.688158 h -0.05271 Q 8.9075359,40.080546 8.7347644,39.966341 8.561993,39.852136 8.3950781,39.776 8.1930234,39.685222 7.9353303,39.626655 7.6805656,39.56516 7.355521,39.56516 q -0.7320826,0 -1.1596188,0.471461 -0.4246078,0.468533 -0.4246078,1.270895 0,0.846288 0.4451061,1.317749 0.4451062,0.468533 1.2123287,0.468533 0.2811197,0 0.5593111,-0.05564 0.2811196,-0.05564 0.4919594,-0.143489 v -1.06884 H 7.311596 v -0.50953 h 1.7423564 z"
         style="font-size:5.99722px;text-align:center;text-anchor:middle;stroke:none;fill:#ffffff;fill-opacity:1"
         id="path12089" />
      <path
         d="M 13.505014,43.509621 H 12.887137 L 12.459601,42.294364 H 10.573756 L 10.14622,43.509621 H 9.5576254 L 11.14478,39.149337 h 0.77308 z m -1.224042,-1.713073 -0.764294,-2.14061 -0.767222,2.14061 z"
         style="font-size:5.99722px;text-align:center;text-anchor:middle;stroke:none;fill:#ffffff;fill-opacity:1"
         id="path12091" />
      <path
         d="m 17.352841,43.509621 h -3.40272 v -0.538813 l 2.673566,-3.306085 h -2.574003 v -0.515386 h 3.238734 v 0.524171 l -2.699921,3.320727 h 2.764344 z"
         style="font-size:5.99722px;text-align:center;text-anchor:middle;stroke:none;fill:#ffffff;fill-opacity:1"
         id="path12093" />
      <path
         d="m 19.812637,43.509621 h -1.721858 v -0.445107 h 0.571024 v -3.470071 h -0.571024 v -0.445106 h 1.721858 v 0.445106 h -0.571024 v 3.470071 h 0.571024 z"
         style="font-size:5.99722px;text-align:center;text-anchor:middle;stroke:none;fill:#ffffff;fill-opacity:1"
         id="path12095" />
      <path
         d="m 24.126068,43.509621 h -0.717441 l -2.067401,-3.900536 v 3.900536 h -0.541741 v -4.360284 h 0.898998 l 1.885844,3.56085 v -3.56085 h 0.541741 z"
         style="font-size:5.99722px;text-align:center;text-anchor:middle;stroke:none;fill:#ffffff;fill-opacity:1"
         id="path12097" />
      <path
         d="m 28.158379,43.509621 h -2.872692 v -4.360284 h 2.872692 v 0.515386 h -2.292882 v 1.194759 h 2.292882 v 0.515386 h -2.292882 v 1.619367 h 2.292882 z"
         style="font-size:5.99722px;text-align:center;text-anchor:middle;stroke:none;fill:#ffffff;fill-opacity:1"
         id="path12099" />
      <path
         d="m 34.870112,41.333871 q 0,0.594451 -0.260622,1.077626 -0.257693,0.483174 -0.688157,0.749652 -0.29869,0.184485 -0.667659,0.266478 -0.366042,0.08199 -0.966349,0.08199 h -1.101052 v -4.360284 h 1.089338 q 0.638376,0 1.013203,0.09371 0.377754,0.09078 0.638376,0.251836 0.445106,0.278191 0.694014,0.740868 0.248908,0.462676 0.248908,1.098123 z m -0.606164,-0.0088 q 0,-0.512457 -0.178629,-0.863857 -0.178628,-0.3514 -0.532956,-0.553454 -0.257693,-0.146417 -0.547597,-0.202055 -0.289905,-0.05857 -0.694015,-0.05857 h -0.544669 v 3.364652 h 0.544669 q 0.418752,0 0.729155,-0.0615 0.313331,-0.0615 0.573952,-0.22841 0.325045,-0.207912 0.486103,-0.547598 0.163987,-0.339686 0.163987,-0.849216 z"
         style="font-size:5.99722px;text-align:center;text-anchor:middle;stroke:none;fill:#ffffff;fill-opacity:1"
         id="path12101" />
      <path
         d="m 38.679867,43.509621 h -2.872691 v -4.360284 h 2.872691 v 0.515386 h -2.292882 v 1.194759 h 2.292882 v 0.515386 h -2.292882 v 1.619367 h 2.292882 z"
         style="font-size:5.99722px;text-align:center;text-anchor:middle;stroke:none;fill:#ffffff;fill-opacity:1"
         id="path12103" />
      <path
         d="m 42.767816,42.26508 q 0,0.254765 -0.120062,0.503673 -0.117133,0.248908 -0.330901,0.42168 -0.234267,0.187413 -0.547598,0.292833 -0.310403,0.10542 -0.749653,0.10542 -0.471461,0 -0.849215,-0.08785 -0.374827,-0.08785 -0.764294,-0.260622 v -0.726226 h 0.041 q 0.330902,0.275263 0.764294,0.424608 0.433393,0.149345 0.814076,0.149345 0.538813,0 0.837503,-0.202055 0.301618,-0.202054 0.301618,-0.538812 0,-0.289905 -0.143489,-0.427537 -0.140559,-0.137631 -0.430464,-0.213768 -0.219625,-0.05857 -0.477318,-0.09663 -0.254765,-0.03807 -0.541741,-0.09663 -0.579809,-0.12299 -0.860929,-0.418752 -0.278191,-0.298689 -0.278191,-0.776007 0,-0.547598 0.462676,-0.896069 0.462676,-0.3514 1.17426,-0.3514 0.459748,0 0.843359,0.08785 0.383611,0.08785 0.679373,0.216697 v 0.685229 h -0.041 q -0.248908,-0.21084 -0.655946,-0.348471 -0.404109,-0.14056 -0.828717,-0.14056 -0.465605,0 -0.749653,0.193269 -0.281119,0.19327 -0.281119,0.497817 0,0.272334 0.140559,0.427536 0.14056,0.155201 0.494888,0.237195 0.187413,0.041 0.532956,0.09956 0.345543,0.05857 0.585666,0.120061 0.486103,0.128847 0.732083,0.389468 0.24598,0.260622 0.24598,0.729154 z"
         style="font-size:5.99722px;text-align:center;text-anchor:middle;stroke:none;fill:#ffffff;fill-opacity:1"
         id="path12105" />
      <path
         d="m 49.245283,43.509621 h -0.617878 l -0.427536,-1.215257 h -1.885844 l -0.427537,1.215257 h -0.588594 l 1.587155,-4.360284 h 0.773079 z m -1.224042,-1.713073 -0.764294,-2.14061 -0.767223,2.14061 z"
         style="font-size:5.99722px;text-align:center;text-anchor:middle;stroke:none;fill:#ffffff;fill-opacity:1"
         id="path12107" />
      <path
         d="M 53.514789,43.509621 H 52.762208 L 51.3039,41.776049 h -0.817004 v 1.733572 h -0.57981 V 39.149337 H 51.1282 q 0.395325,0 0.658874,0.05271 0.26355,0.04978 0.47439,0.181557 0.237195,0.149344 0.368969,0.377754 0.134704,0.225482 0.134704,0.573953 0,0.471461 -0.237195,0.790649 -0.237195,0.31626 -0.653018,0.477318 z m -1.355817,-3.133314 q 0,-0.187413 -0.06735,-0.330901 -0.06442,-0.146416 -0.216697,-0.24598 -0.125918,-0.08492 -0.298689,-0.117133 -0.172772,-0.03514 -0.407038,-0.03514 h -0.682301 v 1.645722 h 0.585666 q 0.275263,0 0.480246,-0.04685 0.204983,-0.04978 0.348471,-0.181557 0.131775,-0.12299 0.19327,-0.28112 0.06442,-0.161058 0.06442,-0.407038 z"
         style="font-size:5.99722px;text-align:center;text-anchor:middle;stroke:none;fill:#ffffff;fill-opacity:1"
         id="path12109" />
      <path
         d="m 57.011217,39.664723 h -1.557872 v 3.844898 h -0.579809 v -3.844898 h -1.557872 v -0.515386 h 3.695553 z"
         style="font-size:5.99722px;text-align:center;text-anchor:middle;stroke:none;fill:#ffffff;fill-opacity:1"
         id="path12111" />
      <path
         d="m 59.134252,43.509621 h -1.721858 v -0.445107 h 0.571025 v -3.470071 h -0.571025 v -0.445106 h 1.721858 v 0.445106 h -0.571024 v 3.470071 h 0.571024 z"
         style="font-size:5.99722px;text-align:center;text-anchor:middle;stroke:none;fill:#ffffff;fill-opacity:1"
         id="path12113" />
      <path
         d="m 63.289555,42.26508 q 0,0.254765 -0.120061,0.503673 -0.117133,0.248908 -0.330901,0.42168 -0.234267,0.187413 -0.547598,0.292833 -0.310403,0.10542 -0.749653,0.10542 -0.471461,0 -0.849215,-0.08785 -0.374827,-0.08785 -0.764294,-0.260622 v -0.726226 h 0.041 q 0.330901,0.275263 0.764294,0.424608 0.433393,0.149345 0.814076,0.149345 0.538813,0 0.837502,-0.202055 0.301618,-0.202054 0.301618,-0.538812 0,-0.289905 -0.143488,-0.427537 -0.14056,-0.137631 -0.430464,-0.213768 -0.219625,-0.05857 -0.477318,-0.09663 -0.254765,-0.03807 -0.541741,-0.09663 -0.579809,-0.12299 -0.860929,-0.418752 -0.278191,-0.298689 -0.278191,-0.776007 0,-0.547598 0.462676,-0.896069 0.462676,-0.3514 1.17426,-0.3514 0.459748,0 0.843359,0.08785 0.383611,0.08785 0.679373,0.216697 v 0.685229 h -0.041 q -0.248908,-0.21084 -0.655946,-0.348471 -0.404109,-0.14056 -0.828717,-0.14056 -0.465605,0 -0.749653,0.193269 -0.281119,0.19327 -0.281119,0.497817 0,0.272334 0.140559,0.427536 0.14056,0.155201 0.494888,0.237195 0.187413,0.041 0.532956,0.09956 0.345543,0.05857 0.585666,0.120061 0.486103,0.128847 0.732083,0.389468 0.245979,0.260622 0.245979,0.729154 z"
         style="font-size:5.99722px;text-align:center;text-anchor:middle;stroke:none;fill:#ffffff;fill-opacity:1"
         id="path12115" />
      <path
         d="M 67.330652,39.664723 H 65.77278 v 3.844898 h -0.579809 v -3.844898 h -1.557872 v -0.515386 h 3.695553 z"
         style="font-size:5.99722px;text-align:center;text-anchor:middle;stroke:none;fill:#ffffff;fill-opacity:1"
         id="path12117" />
      <path
         d="m 70.789006,43.509621 h -2.872692 v -4.360284 h 2.872692 v 0.515386 h -2.292883 v 1.194759 h 2.292883 v 0.515386 h -2.292883 v 1.619367 h 2.292883 z"
         style="font-size:5.99722px;text-align:center;text-anchor:middle;stroke:none;fill:#ffffff;fill-opacity:1"
         id="path12119" />
      <path
         d="m 74.876958,42.26508 q 0,0.254765 -0.120062,0.503673 -0.117133,0.248908 -0.330901,0.42168 -0.234266,0.187413 -0.547598,0.292833 -0.310403,0.10542 -0.749652,0.10542 -0.471461,0 -0.849216,-0.08785 -0.374826,-0.08785 -0.764294,-0.260622 v -0.726226 h 0.041 q 0.330901,0.275263 0.764294,0.424608 0.433393,0.149345 0.814075,0.149345 0.538813,0 0.837503,-0.202055 0.301618,-0.202054 0.301618,-0.538812 0,-0.289905 -0.143488,-0.427537 -0.14056,-0.137631 -0.430465,-0.213768 -0.219625,-0.05857 -0.477318,-0.09663 -0.254764,-0.03807 -0.541741,-0.09663 -0.579809,-0.12299 -0.860929,-0.418752 -0.278191,-0.298689 -0.278191,-0.776007 0,-0.547598 0.462676,-0.896069 0.462676,-0.3514 1.17426,-0.3514 0.459748,0 0.843359,0.08785 0.383612,0.08785 0.679373,0.216697 v 0.685229 h -0.041 q -0.248908,-0.21084 -0.655946,-0.348471 -0.404109,-0.14056 -0.828717,-0.14056 -0.465604,0 -0.749652,0.193269 -0.28112,0.19327 -0.28112,0.497817 0,0.272334 0.14056,0.427536 0.14056,0.155201 0.494887,0.237195 0.187414,0.041 0.532957,0.09956 0.345543,0.05857 0.585666,0.120061 0.486102,0.128847 0.732082,0.389468 0.24598,0.260622 0.24598,0.729154 z"
         style="font-size:5.99722px;text-align:center;text-anchor:middle;stroke:none;fill:#ffffff;fill-opacity:1"
         id="path12121" />
      <path
         d="m 81.600405,41.333871 q 0,0.594451 -0.260621,1.077626 -0.257693,0.483174 -0.688158,0.749652 -0.298689,0.184485 -0.667659,0.266478 -0.366041,0.08199 -0.966349,0.08199 h -1.101052 v -4.360284 h 1.089339 q 0.638376,0 1.013202,0.09371 0.377754,0.09078 0.638376,0.251836 0.445106,0.278191 0.694014,0.740868 0.248908,0.462676 0.248908,1.098123 z m -0.606164,-0.0088 q 0,-0.512457 -0.178628,-0.863857 -0.178628,-0.3514 -0.532956,-0.553454 -0.257693,-0.146417 -0.547598,-0.202055 -0.289905,-0.05857 -0.694014,-0.05857 h -0.54467 v 3.364652 h 0.54467 q 0.418751,0 0.729154,-0.0615 0.313331,-0.0615 0.573953,-0.22841 0.325044,-0.207912 0.486102,-0.547598 0.163987,-0.339686 0.163987,-0.849216 z"
         style="font-size:5.99722px;text-align:center;text-anchor:middle;stroke:none;fill:#ffffff;fill-opacity:1"
         id="path12123" />
      <path
         d="m 85.820127,41.758479 q 0,0.47439 -0.10542,0.828718 -0.102491,0.351399 -0.339686,0.585666 -0.225482,0.222553 -0.5271,0.325044 -0.301618,0.102492 -0.702799,0.102492 -0.409966,0 -0.714512,-0.108348 -0.304547,-0.108349 -0.512458,-0.319188 -0.237195,-0.240123 -0.342615,-0.57981 -0.102491,-0.339686 -0.102491,-0.834574 v -2.609142 h 0.579809 v 2.638426 q 0,0.354328 0.04685,0.559311 0.04978,0.204983 0.163987,0.371898 0.128846,0.190341 0.348471,0.286976 0.222553,0.09664 0.532956,0.09664 0.313331,0 0.532956,-0.09371 0.219625,-0.09663 0.3514,-0.289904 0.114205,-0.166915 0.161058,-0.380683 0.04978,-0.216697 0.04978,-0.535885 v -2.653067 h 0.579809 z"
         style="font-size:5.99722px;text-align:center;text-anchor:middle;stroke:none;fill:#ffffff;fill-opacity:1"
         id="path12125" />
      <path
         d="m 94.110228,39.149337 -1.133264,4.360284 h -0.653017 l -0.916568,-3.619416 -0.896069,3.619416 h -0.638376 l -1.153762,-4.360284 h 0.594451 l 0.916568,3.625273 0.901925,-3.625273 h 0.588595 l 0.91071,3.660413 0.910711,-3.660413 z"
         style="font-size:5.99722px;text-align:center;text-anchor:middle;stroke:none;fill:#ffffff;fill-opacity:1"
         id="path12127" />
      <path
         d="m 97.837994,43.509621 h -2.872692 v -4.360284 h 2.872692 v 0.515386 h -2.292882 v 1.194759 h 2.292882 v 0.515386 h -2.292882 v 1.619367 h 2.292882 z"
         style="font-size:5.99722px;text-align:center;text-anchor:middle;stroke:none;fill:#ffffff;fill-opacity:1"
         id="path12129" />
      <path
         d="m 102.04601,42.168445 q 0,0.325045 -0.12299,0.573953 -0.12299,0.248908 -0.3309,0.409966 -0.24598,0.19327 -0.54174,0.275263 -0.29284,0.08199 -0.74673,0.08199 h -1.546157 v -4.360284 h 1.291397 q 0.47731,0 0.71451,0.03514 0.23719,0.03514 0.45389,0.146417 0.24012,0.125918 0.34847,0.325044 0.10835,0.196198 0.10835,0.471461 0,0.310403 -0.15813,0.530028 -0.15813,0.216697 -0.42168,0.348471 v 0.02343 q 0.44218,0.09078 0.69694,0.389468 0.25477,0.295761 0.25477,0.749652 z m -0.97514,-1.964909 q 0,-0.15813 -0.0527,-0.266478 -0.0527,-0.108348 -0.16984,-0.1757 -0.13763,-0.07906 -0.33383,-0.09663 -0.1962,-0.0205 -0.4861,-0.0205 h -0.691088 v 1.259182 h 0.749648 q 0.27234,0 0.4334,-0.02636 0.16106,-0.02928 0.29869,-0.117133 0.13763,-0.08785 0.19327,-0.225482 0.0586,-0.14056 0.0586,-0.330901 z m 0.3719,1.988336 q 0,-0.26355 -0.0791,-0.418751 -0.0791,-0.155202 -0.28698,-0.26355 -0.14056,-0.07321 -0.34261,-0.09371 -0.19913,-0.02343 -0.48611,-0.02343 h -0.910708 v 1.622295 h 0.767218 q 0.38069,0 0.62374,-0.03807 0.24305,-0.041 0.39825,-0.146417 0.16399,-0.114205 0.24013,-0.260621 0.0761,-0.146417 0.0761,-0.377755 z"
         style="font-size:5.99722px;text-align:center;text-anchor:middle;stroke:none;fill:#ffffff;fill-opacity:1"
         id="path12131" />
    </g>
    <flowRoot
       xml:space="preserve"
       id="flowRoot1418"
       style="font-style:normal;font-weight:normal;font-size:40px;line-height:1.25;font-family:sans-serif;letter-spacing:0px;word-spacing:0px;fill:#000000;fill-opacity:1;stroke:none"
       transform="matrix(0.26458333,0,0,0.26458333,-15.789744,11.733233)"><flowRegion
         id="flowRegion1420"><rect
           id="rect1422"
           width="0.71428573"
           height="57.857143"
           x="216.42857"
           y="120.22369" /></flowRegion><flowPara
         id="flowPara1424" /></flowRoot>
  </g>
</svg>
